<svg width="24" height="24" viewBox="0 0 24 24" fill="none" xmlns="http://www.w3.org/2000/svg">
<g clip-path="url(#clip0_4460_27)">
<path d="M5.58648 7.72095H0.768444C0.554612 7.72095 0.381348 7.89429 0.381348 8.10804V23.5863C0.381348 23.8002 0.554612 23.9734 0.768444 23.9734H5.58648C5.80032 23.9734 5.97358 23.8002 5.97358 23.5863V8.10804C5.97358 7.89429 5.80032 7.72095 5.58648 7.72095Z" fill="#C0C2C4"/>
<path d="M3.1793 0.0263672C1.42622 0.0263672 0 1.45104 0 3.20219C0 4.95411 1.42622 6.37932 3.1793 6.37932C4.93099 6.37932 6.35605 4.95403 6.35605 3.20219C6.35613 1.45104 4.93099 0.0263672 3.1793 0.0263672Z" fill="#C0C2C4"/>
<path d="M17.8415 7.33618C15.9064 7.33618 14.4759 8.16805 13.6083 9.11327V8.10798C13.6083 7.89422 13.435 7.72088 13.2212 7.72088H8.60707C8.39324 7.72088 8.21997 7.89422 8.21997 8.10798V23.5863C8.21997 23.8001 8.39324 23.9734 8.60707 23.9734H13.4146C13.6284 23.9734 13.8017 23.8001 13.8017 23.5863V15.9281C13.8017 13.3475 14.5026 12.3421 16.3015 12.3421C18.2607 12.3421 18.4164 13.9538 18.4164 16.0609V23.5863C18.4164 23.8002 18.5897 23.9734 18.8035 23.9734H23.6128C23.8266 23.9734 23.9999 23.8002 23.9999 23.5863V15.0962C23.9999 11.2589 23.2682 7.33618 17.8415 7.33618Z" fill="#C0C2C4"/>
</g>
<defs>
<clipPath id="clip0_4460_27">
<rect width="24" height="24" fill="white"/>
</clipPath>
</defs>
</svg>
